<svg width="38" height="38" viewBox="0 0 38 38" fill="none" xmlns="http://www.w3.org/2000/svg">
<path d="M11.0833 19V14.25H15.8333M26.9167 19V23.75H22.1667M4.75 11.0833C4.75 10.2435 5.08363 9.43802 5.6775 8.84415C6.27136 8.25029 7.07681 7.91666 7.91667 7.91666H30.0833C30.9232 7.91666 31.7286 8.25029 32.3225 8.84415C32.9164 9.43802 33.25 10.2435 33.25 11.0833V26.9167C33.25 27.7565 32.9164 28.562 32.3225 29.1558C31.7286 29.7497 30.9232 30.0833 30.0833 30.0833H7.91667C7.07681 30.0833 6.27136 29.7497 5.6775 29.1558C5.08363 28.562 4.75 27.7565 4.75 26.9167V11.0833Z" stroke="currentColor" stroke-width="2" stroke-linecap="round" stroke-linejoin="round"/>
</svg>
