<svg width="34" height="34" viewBox="0 0 34 34" fill="none" xmlns="http://www.w3.org/2000/svg">
    <path d="M17 9.91672V17.0001H22M18.4407 29.6693C15.7744 29.9724 13.0804 29.4264 10.7424 28.1092C8.40442 26.7919 6.54166 24.7706 5.41939 22.333C4.29712 19.8955 3.97257 17.1659 4.49195 14.5331C5.01134 11.9004 6.34818 9.4986 8.3121 7.66986C10.276 5.84111 12.7669 4.67865 15.4299 4.34802C18.093 4.01738 20.7925 4.53543 23.144 5.82838C25.4955 7.12134 27.3791 9.12328 28.5265 11.5491C29.674 13.9749 30.0268 16.701 29.5346 19.339"
          stroke="currentColor" stroke-width="1.5" stroke-linecap="round" stroke-linejoin="round"/>
    <path d="M23 31L30 26.5L23 22V31Z" stroke="currentColor" stroke-width="1.5" stroke-linecap="round"
          stroke-linejoin="round"/>
</svg>
