<svg width="38" height="38" viewBox="0 0 38 38" fill="none" xmlns="http://www.w3.org/2000/svg">
<path d="M6.33331 12.6667V9.50001C6.33331 8.66016 6.66694 7.8547 7.26081 7.26084C7.85467 6.66697 8.66013 6.33334 9.49998 6.33334H12.6666M6.33331 25.3333V28.5C6.33331 29.3399 6.66694 30.1453 7.26081 30.7392C7.85467 31.333 8.66013 31.6667 9.49998 31.6667H12.6666M25.3333 6.33334H28.5C29.3398 6.33334 30.1453 6.66697 30.7391 7.26084C31.333 7.8547 31.6666 8.66016 31.6666 9.50001V12.6667M25.3333 31.6667H28.5C29.3398 31.6667 30.1453 31.333 30.7391 30.7392C31.333 30.1453 31.6666 29.3399 31.6666 28.5V25.3333" stroke="currentColor" stroke-width="2" stroke-linecap="round" stroke-linejoin="round"/>
</svg>
