<svg width="38" height="38" viewBox="0 0 38 38" fill="none" xmlns="http://www.w3.org/2000/svg">
<path d="M23.75 30.0833V26.9167C23.75 26.0768 24.0837 25.2714 24.6775 24.6775C25.2714 24.0836 26.0768 23.75 26.9167 23.75H30.0834M23.75 7.91666V11.0833C23.75 11.9232 24.0837 12.7286 24.6775 13.3225C25.2714 13.9164 26.0768 14.25 26.9167 14.25H30.0834M7.91669 23.75H11.0834C11.9232 23.75 12.7287 24.0836 13.3225 24.6775C13.9164 25.2714 14.25 26.0768 14.25 26.9167V30.0833M7.91669 14.25H11.0834C11.9232 14.25 12.7287 13.9164 13.3225 13.3225C13.9164 12.7286 14.25 11.9232 14.25 11.0833V7.91666" stroke="currentColor" stroke-width="2" stroke-linecap="round" stroke-linejoin="round"/>
</svg>
