<svg width="34" height="35" viewBox="0 0 34 35" fill="none" xmlns="http://www.w3.org/2000/svg">
<path d="M5.07986 8.23807C4.54851 8.76942 4.25 9.49009 4.25 10.2415V24.4082C4.25 25.1596 4.54851 25.8803 5.07986 26.4117C5.61122 26.943 6.33189 27.2415 7.08333 27.2415H26.9167C27.6681 27.2415 28.3888 26.943 28.9201 26.4117C29.4515 25.8803 29.75 25.1596 29.75 24.4082V10.2415C29.75 9.49009 29.4515 8.76942 28.9201 8.23807C28.3888 7.70671 27.6681 7.4082 26.9167 7.4082H7.08333C6.33189 7.4082 5.61122 7.70671 5.07986 8.23807Z" stroke="currentColor" stroke-width="1.5" stroke-linecap="round" stroke-linejoin="round"/>
<path d="M15 13V22L22 17.5L15 13Z" stroke="currentColor" stroke-width="1.5" stroke-linecap="round" stroke-linejoin="round"/>
</svg>
