<svg width="38" height="38" viewBox="0 0 38 38" fill="none" xmlns="http://www.w3.org/2000/svg">
    <path d="M15.2119 2.40246C16.4312 2.12525 17.6993 1.97913 19 1.97913C28.4004 1.97913 36.0208 9.59961 36.0208 19C36.0208 28.4004 28.4004 36.0208 19 36.0208C17.6993 36.0208 16.4312 35.8746 15.2119 35.5974C14.5724 35.4521 14.1718 34.8157 14.3172 34.1762C14.4626 33.5367 15.0989 33.1361 15.7384 33.2816C16.7862 33.5198 17.8776 33.6458 19 33.6458C27.0886 33.6458 33.6458 27.0886 33.6458 19C33.6458 10.9113 27.0886 4.35413 19 4.35413C17.8776 4.35413 16.7862 4.48016 15.7384 4.71836C15.0989 4.86375 14.4626 4.46319 14.3172 3.82366C14.1718 3.18414 14.5724 2.54784 15.2119 2.40246Z"
          fill="white"/>
    <path d="M11.5801 4.95898C11.9295 5.51397 11.7629 6.24716 11.2079 6.5966C9.3472 7.7682 7.7682 9.3472 6.5966 11.2079C6.24714 11.7629 5.51397 11.9295 4.95898 11.5801C4.40399 11.2306 4.23737 10.4974 4.58681 9.94245C5.94774 7.78108 7.78108 5.94774 9.94244 4.58681C10.4974 4.23737 11.2306 4.40399 11.5801 4.95898Z"
          fill="white"/>
    <path d="M4.7184 15.7384C4.8638 15.0989 4.46323 14.4626 3.82371 14.3172C3.18418 14.1718 2.54789 14.5723 2.40251 15.2119C2.1253 16.4312 1.97917 17.6993 1.97917 19C1.97917 20.3007 2.1253 21.5688 2.40251 22.7881C2.54789 23.4276 3.18418 23.8282 3.82371 23.6828C4.46323 23.5373 4.8638 22.9011 4.7184 22.2616C4.48021 21.2138 4.35417 20.1224 4.35417 19C4.35417 17.8775 4.48021 16.7861 4.7184 15.7384Z"
          fill="white"/>
    <path d="M4.95898 26.42C5.51397 26.0705 6.24716 26.2371 6.5966 26.792C7.7682 28.6528 9.3472 30.2318 11.2079 31.4033C11.7629 31.7528 11.9295 32.486 11.5801 33.041C11.2306 33.5959 10.4974 33.7627 9.94245 33.4132C7.78108 32.0522 5.94774 30.2189 4.58681 28.0576C4.23737 27.5025 4.40399 26.7694 4.95898 26.42Z"
          fill="white"/>
    <path d="M20.329 16.1816L22.6812 20.1958L25.0335 16.1816H26.7722L23.6017 21.0907L26.7722 25.9998H25.0335L22.6812 22.1902L20.329 25.9998H18.5903L21.7097 21.0907L18.5903 16.1816H20.329Z"
          fill="white"/>
    <path d="M15.4135 12.9089V25.9998H13.8283V14.5709H13.7516L10.5555 16.693V15.0822L13.8283 12.9089H15.4135Z"
          fill="white"/>
</svg>
