<svg width="36" height="36" viewBox="0 0 36 36" fill="none" xmlns="http://www.w3.org/2000/svg">
    <path d="M14.2119 1.40252C15.4312 1.12531 16.6993 0.979187 18 0.979187C27.4004 0.979187 35.0208 8.59968 35.0208 18C35.0208 27.4004 27.4004 35.0209 18 35.0209C16.6993 35.0209 15.4312 34.8747 14.2119 34.5975C13.5724 34.4521 13.1718 33.8158 13.3172 33.1763C13.4626 32.5368 14.0989 32.1362 14.7384 32.2817C15.7862 32.5198 16.8776 32.6459 18 32.6459C26.0886 32.6459 32.6458 26.0886 32.6458 18C32.6458 9.91136 26.0886 3.35419 18 3.35419C16.8776 3.35419 15.7862 3.48022 14.7384 3.71842C14.0989 3.86381 13.4626 3.46325 13.3172 2.82372C13.1718 2.1842 13.5724 1.5479 14.2119 1.40252Z"
          fill="white"/>
    <path d="M10.5801 3.95898C10.9295 4.51397 10.7629 5.24716 10.2079 5.5966C8.3472 6.7682 6.7682 8.3472 5.5966 10.2079C5.24714 10.7629 4.51397 10.9295 3.95898 10.5801C3.40399 10.2306 3.23737 9.49743 3.58681 8.94245C4.94774 6.78108 6.78108 4.94774 8.94244 3.58681C9.49743 3.23737 10.2306 3.40399 10.5801 3.95898Z"
          fill="white"/>
    <path d="M3.7184 14.7384C3.8638 14.0989 3.46323 13.4626 2.82371 13.3172C2.18418 13.1718 1.54789 13.5724 1.40251 14.2119C1.1253 15.4312 0.979172 16.6993 0.979172 18C0.979172 19.3007 1.1253 20.5688 1.40251 21.7882C1.54789 22.4277 2.18418 22.8282 2.82371 22.6829C3.46323 22.5374 3.8638 21.9012 3.7184 21.2617C3.48021 20.2138 3.35417 19.1225 3.35417 18C3.35417 16.8776 3.48021 15.7862 3.7184 14.7384Z"
          fill="white"/>
    <path d="M3.95898 25.42C4.51397 25.0706 5.24716 25.2371 5.5966 25.7921C6.7682 27.6528 8.3472 29.2319 10.2079 30.4034C10.7629 30.7528 10.9295 31.4861 10.5801 32.041C10.2306 32.596 9.49743 32.7627 8.94245 32.4133C6.78108 31.0523 4.94774 29.2189 3.58681 27.0577C3.23737 26.5025 3.40399 25.7695 3.95898 25.42Z"
          fill="white"/>
    <path d="M20.5946 15.1818L22.9469 19.196L25.2991 15.1818H27.0378L23.8673 20.0909L27.0378 24.9999H25.2991L22.9469 21.1903L20.5946 24.9999H18.856L21.9753 20.0909L18.856 15.1818H20.5946Z"
          fill="white"/>
    <path d="M8.54553 25V23.8494L12.8666 19.1193C13.3737 18.5653 13.7913 18.0838 14.1194 17.6747C14.4475 17.2614 14.6904 16.8736 14.8481 16.5114C15.01 16.1449 15.091 15.7614 15.091 15.3608C15.091 14.9006 14.9802 14.5021 14.7586 14.1655C14.5413 13.8288 14.243 13.5689 13.8637 13.3856C13.4845 13.2024 13.0583 13.1108 12.5853 13.1108C12.0825 13.1108 11.6435 13.2152 11.2685 13.424C10.8978 13.6285 10.6102 13.9162 10.4056 14.2869C10.2053 14.6577 10.1052 15.0923 10.1052 15.5909H8.59667C8.59667 14.8239 8.77352 14.1506 9.12721 13.571C9.4809 12.9915 9.96244 12.5398 10.5718 12.2159C11.1854 11.892 11.8737 11.7301 12.6364 11.7301C13.4035 11.7301 14.0832 11.892 14.6755 12.2159C15.2678 12.5398 15.7323 12.9766 16.069 13.5263C16.4056 14.076 16.5739 14.6875 16.5739 15.3608C16.5739 15.8423 16.4866 16.3132 16.3119 16.7734C16.1414 17.2294 15.8431 17.7386 15.417 18.3011C14.9951 18.8594 14.4092 19.5412 13.6592 20.3466L10.7188 23.4915V23.5937H16.8041V25H8.54553Z"
          fill="white"/>
</svg>
