<svg width="38" height="38" viewBox="0 0 38 38" fill="none" xmlns="http://www.w3.org/2000/svg">
<path d="M23.75 12.6667C24.7332 13.4041 25.5312 14.3603 26.0809 15.4596C26.6305 16.5588 26.9167 17.771 26.9167 19C26.9167 20.229 26.6305 21.4412 26.0809 22.5404C25.5312 23.6397 24.7332 24.5959 23.75 25.3333M28.025 7.91667C29.6779 9.25245 31.0112 10.941 31.9271 12.8588C32.843 14.7765 33.3183 16.8748 33.3183 19C33.3183 21.1252 32.843 23.2235 31.9271 25.1412C31.0112 27.059 29.6779 28.7476 28.025 30.0833M9.5 23.75H6.33333C5.91341 23.75 5.51068 23.5832 5.21375 23.2863C4.91681 22.9893 4.75 22.5866 4.75 22.1667V15.8333C4.75 15.4134 4.91681 15.0107 5.21375 14.7138C5.51068 14.4168 5.91341 14.25 6.33333 14.25H9.5L15.0417 7.12501C15.1801 6.85621 15.41 6.64577 15.69 6.53172C15.97 6.41767 16.2816 6.40754 16.5684 6.50314C16.8552 6.59875 17.0984 6.79379 17.254 7.05303C17.4095 7.31227 17.4672 7.6186 17.4167 7.91667V30.0833C17.4672 30.3814 17.4095 30.6877 17.254 30.947C17.0984 31.2062 16.8552 31.4013 16.5684 31.4969C16.2816 31.5925 15.97 31.5823 15.69 31.4683C15.41 31.3542 15.1801 31.1438 15.0417 30.875L9.5 23.75Z" stroke="currentColor" stroke-width="2" stroke-linecap="round" stroke-linejoin="round"/>
</svg>
