<svg width="34" height="34" viewBox="0 0 34 34" fill="none" xmlns="http://www.w3.org/2000/svg">
<path d="M5.1 12.75H28.9M5.1 21.25H28.9M16.2917 4.25C13.9051 8.07445 12.6398 12.492 12.6398 17C12.6398 21.508 13.9051 25.9255 16.2917 29.75M17.7083 4.25C20.0949 8.07445 21.3602 12.492 21.3602 17C21.3602 21.508 20.0949 25.9255 17.7083 29.75M4.25 17C4.25 18.6744 4.57979 20.3323 5.22054 21.8792C5.86128 23.4261 6.80044 24.8317 7.98439 26.0156C9.16834 27.1996 10.5739 28.1387 12.1208 28.7795C13.6677 29.4202 15.3256 29.75 17 29.75C18.6744 29.75 20.3323 29.4202 21.8792 28.7795C23.4261 28.1387 24.8317 27.1996 26.0156 26.0156C27.1996 24.8317 28.1387 23.4261 28.7795 21.8792C29.4202 20.3323 29.75 18.6744 29.75 17C29.75 13.6185 28.4067 10.3755 26.0156 7.98439C23.6245 5.5933 20.3815 4.25 17 4.25C13.6185 4.25 10.3755 5.5933 7.98439 7.98439C5.5933 10.3755 4.25 13.6185 4.25 17Z" stroke="currentColor" stroke-width="1.5" stroke-linecap="round" stroke-linejoin="round"/>
</svg>
