<svg width="78" height="78" viewBox="0 0 78 78" fill="none" xmlns="http://www.w3.org/2000/svg">
<g clip-path="url(#clip0_98_6524)">
<path fill-rule="evenodd" clip-rule="evenodd" d="M29.9404 67.7394C30.5225 67.6648 31.1138 67.7231 31.6771 67.8879C46.5142 72.2303 62.9417 66.0775 71.0149 52.0942C80.4921 35.6792 74.8679 14.6895 58.4529 5.21225C42.0379 -4.26496 21.0482 1.35923 11.571 17.7742C5.22197 28.771 5.65042 41.8209 11.5603 52.0872C11.983 52.8214 12.2003 53.66 12.1413 54.5051L11.3875 65.2944C11.2116 67.8122 13.3828 69.8616 15.8863 69.5408L29.9404 67.7394Z" fill="#6155A6"/>
<ellipse cx="38.8213" cy="46.8696" rx="2.43478" ry="2.43478" fill="white"/>
<path d="M43.6304 20.4316C41.8412 19.5492 39.8304 19.2173 37.8525 19.4777C35.8745 19.7381 34.0182 20.5791 32.5183 21.8945C31.5445 22.7486 30.7493 23.7776 30.1699 24.9218C29.6493 25.9501 30.3284 27.1095 31.4417 27.4078L32.1136 27.5878C33.2269 27.8861 34.3448 27.1813 35.0532 26.272C35.2544 26.0137 35.4805 25.7737 35.729 25.5557C36.5048 24.8753 37.465 24.4403 38.4881 24.3056C39.5111 24.1709 40.5512 24.3426 41.4767 24.799C42.4022 25.2554 43.1715 25.976 43.6875 26.8696C44.2034 27.7633 44.4428 28.7899 44.3753 29.8196C44.3078 30.8492 43.9365 31.8358 43.3083 32.6545C42.6801 33.4731 41.8233 34.0871 40.8462 34.4188C40.0433 34.6957 39.8273 34.6957 38.9998 34.6957L38.3042 34.6957C37.1516 34.6957 36.2172 35.6301 36.2172 36.7827V40.2609C36.2172 41.4135 37.1516 42.3479 38.3042 42.3479H38.9999C40.1524 42.3479 41.0868 41.4135 41.0868 40.2609C41.0868 39.7503 41.4568 39.3184 41.9473 39.1763C42.0974 39.1329 42.2518 39.0841 42.4114 39.03C44.3006 38.3887 45.9571 37.2016 47.1716 35.6189C48.3861 34.0361 49.104 32.1288 49.2344 30.138C49.3649 28.1473 48.9021 26.1626 47.9046 24.4348C46.9071 22.7071 45.4197 21.314 43.6304 20.4316Z" fill="white"/>
</g>
<defs>
<clipPath id="clip0_98_6524">
<rect width="78" height="78" fill="white"/>
</clipPath>
</defs>
</svg>
