<svg width="78" height="78" viewBox="0 0 78 78" fill="none" xmlns="http://www.w3.org/2000/svg">
<g clip-path="url(#clip0_38_7707)">
<path fill-rule="evenodd" clip-rule="evenodd" d="M31.2241 67.6164C49.5327 72.5222 68.3516 61.6571 73.2573 43.3485C78.1631 25.04 67.298 6.22105 48.9894 1.31529C30.6809 -3.59048 11.862 7.27463 6.9562 25.5832C4.64678 34.2021 5.83237 42.934 9.6442 50.2744C10.1354 51.2203 10.2919 52.3122 10.016 53.3418L6.6911 65.7505C5.92777 68.5993 8.40487 71.2664 11.3022 70.7153L29.6903 67.2178C29.701 67.2158 29.7044 67.2022 29.696 67.1954C29.685 67.1865 29.6945 67.169 29.7079 67.1732C30.2074 67.3316 30.7129 67.4794 31.2241 67.6164Z" fill="#FF9900"/>
<path fill-rule="evenodd" clip-rule="evenodd" d="M35.8696 36.5652C35.8696 38.222 37.2128 39.5652 38.8696 39.5652H39.1305C40.7874 39.5652 42.1305 38.222 42.1305 36.5652L42.1305 23.0869C42.1305 21.4301 40.7874 20.0869 39.1305 20.0869H38.8696C37.2128 20.0869 35.8696 21.4301 35.8696 23.0869V36.5652ZM39.0001 47.913C40.729 47.913 42.1305 46.5115 42.1305 44.7826C42.1305 43.0537 40.729 41.6521 39.0001 41.6521C37.2712 41.6521 35.8696 43.0537 35.8696 44.7826C35.8696 46.5115 37.2712 47.913 39.0001 47.913Z" fill="white"/>
</g>
<defs>
<clipPath id="clip0_38_7707">
<rect width="78" height="78" fill="white"/>
</clipPath>
</defs>
</svg>
