<svg width="22" height="22" viewBox="0 0 22 22" fill="none" xmlns="http://www.w3.org/2000/svg">
<path fill-rule="evenodd" clip-rule="evenodd" d="M11 0C11.6075 0 12.1 0.492486 12.1 1.1V4.4C12.1 5.00751 11.6075 5.49999 11 5.49999C10.3925 5.49999 9.9 5.00751 9.9 4.4V1.1C9.9 0.492486 10.3925 0 11 0ZM5.5 1.47372C6.02612 1.16996 6.69887 1.35022 7.00263 1.87635L8.65263 4.73423C8.95639 5.26035 8.77612 5.9331 8.25 6.23686C7.72388 6.54061 7.05113 6.36035 6.74737 5.83423L5.09737 2.97634C4.79362 2.45022 4.97388 1.77747 5.5 1.47372ZM1.47372 5.5C1.77748 4.97387 2.45022 4.79361 2.97635 5.09737L5.83424 6.74736C6.36036 7.05112 6.54062 7.72387 6.23686 8.24999C5.93311 8.77611 5.26036 8.95638 4.73424 8.65262L1.87635 7.00262C1.35023 6.69887 1.16996 6.02612 1.47372 5.5ZM0 11C0 10.3925 0.492487 9.90001 1.1 9.90001H4.4C5.00751 9.90001 5.5 10.3925 5.5 11C5.5 11.6075 5.00751 12.1 4.4 12.1H1.1C0.492487 12.1 0 11.6075 0 11ZM16.5 11C16.5 10.3925 16.9925 9.90001 17.6 9.90001H20.9C21.5075 9.90001 22 10.3925 22 11C22 11.6075 21.5075 12.1 20.9 12.1H17.6C16.9925 12.1 16.5 11.6075 16.5 11ZM6.23686 13.75C6.54062 14.2761 6.36036 14.9489 5.83424 15.2526L2.97635 16.9026C2.45022 17.2064 1.77748 17.0261 1.47372 16.5C1.16996 15.9739 1.35023 15.3011 1.87635 14.9974L4.73424 13.3474C5.26036 13.0436 5.93311 13.2239 6.23686 13.75ZM15.7632 13.75C16.067 13.2239 16.7397 13.0436 17.2658 13.3474L20.1236 14.9974C20.6498 15.3012 20.83 15.9739 20.5262 16.5C20.2225 17.0261 19.5497 17.2064 19.0236 16.9026L16.1658 15.2526C15.6397 14.9489 15.4594 14.2761 15.7632 13.75ZM8.25 15.7631C8.77612 16.0668 8.95638 16.7396 8.65263 17.2657L7.00263 20.1236C6.69888 20.6497 6.02613 20.83 5.5 20.5263C4.97388 20.2225 4.79362 19.5497 5.09737 19.0236L6.74737 16.1657C7.05112 15.6396 7.72387 15.4593 8.25 15.7631ZM13.75 15.7631C14.2761 15.4593 14.9489 15.6396 15.2526 16.1657L16.9026 19.0236C17.2064 19.5497 17.0261 20.2225 16.5 20.5263C15.9739 20.83 15.3011 20.6497 14.9974 20.1236L13.3474 17.2657C13.0436 16.7396 13.2239 16.0668 13.75 15.7631ZM11 16.5C11.6075 16.5 12.1 16.9925 12.1 17.6V20.9C12.1 21.5075 11.6075 22 11 22C10.3925 22 9.9 21.5075 9.9 20.9V17.6C9.9 16.9925 10.3925 16.5 11 16.5Z" fill="currentColor"/>
</svg>
